<svg id="Layer_1" data-name="Layer 1" xmlns="http://www.w3.org/2000/svg" viewBox="0 0 141.65 85.82"><defs><style>.cls-1{fill:#e36b18;}.cls-2{fill:#eea878;}.cls-3{fill:#f2c2a1;}.cls-4{fill:#e78342;}.cls-5{fill:#e57a32;}.cls-6{fill:#eb9b62;}.cls-7{fill:#fae6d9;}.cls-8{fill:#252f43;}.cls-9{fill:#263043;}.cls-10{fill:#e16610;}.cls-11{fill:#e16813;}.cls-12{fill:#e26711;}.cls-13{fill:#1e293d;}.cls-14{fill:#f9e3d4;}.cls-15{fill:#3a4355;}.cls-16{fill:#e36a16;}.cls-17{fill:#e67e35;}.cls-18{fill:#fdfdfd;}.cls-19{fill:#e1c8b9;}.cls-20{fill:#212b3f;}.cls-21{fill:#e98e4f;}.cls-22{fill:#394154;}.cls-23{fill:#3d4557;}.cls-24{fill:#e37121;}.cls-25{fill:#e67c33;}.cls-26{fill:#babdc3;}.cls-27{fill:#e36e22;}.cls-28{fill:#202a3f;}.cls-29{fill:#e88c4c;}.cls-30{fill:#e2e3e6;}.cls-31{fill:#444d5d;}.cls-32{fill:#b8bbc1;}.cls-33{fill:#8c919c;}.cls-34{fill:#202a3e;}.cls-35{fill:#ed9f69;}.cls-36{fill:#f9e1d1;}.cls-37{fill:#e47221;}.cls-38{fill:#e68037;}.cls-39{fill:#ededef;}.cls-40{fill:#394254;}.cls-41{fill:#e6813b;}.cls-42{fill:#e98c4c;}.cls-43{fill:#fcf0e5;}.cls-44{fill:#fefefe;}.cls-45{fill:#ede4e0;}.cls-46{fill:#f9f6f4;}.cls-47{fill:#202b3f;}</style></defs><title>favicon</title><path class="cls-1" d="M888.08,528c2.06-1,.11-4.46,3-5a.77.77,0,0,1,1.16,0c.3,2.05-2,3.7-.89,5.86a4.18,4.18,0,0,0,4.6,0c1.14-1.7-1.34-2.26-1.21-3.68,4.13.7,5.93,6.32,4,10.79-.85,1.93-4.61,2-3.22,5.32.17.4-1.36.08-2.07-.21-2.83-1.16-3.81-3.91-5.35-6.19Z" transform="translate(-888.08 -468.07)"/><path class="cls-2" d="M978,468.07h12c.11,3-2.07,2.3-3.79,2.37-2.35-.2-4.75.22-7.06-.53C978.37,469.53,977.75,469.06,978,468.07Z" transform="translate(-888.08 -468.07)"/><path class="cls-3" d="M986.89,469.07c1.34.62,2.51.74,3.08-1h2c.44.43,1.07.62,1.42,1.16a1.55,1.55,0,0,1-.35,1.71l-4,.25a1.76,1.76,0,0,1-1.89.24,1.88,1.88,0,0,1-.68-1.13A2.06,2.06,0,0,1,986.89,469.07Z" transform="translate(-888.08 -468.07)"/><path class="cls-4" d="M968.74,469.91c.63-.77,2.14-.45,2.25-1.84h3a2.45,2.45,0,0,1,.32,3,3.17,3.17,0,0,1-3,.72A3.69,3.69,0,0,1,968.74,469.91Z" transform="translate(-888.08 -468.07)"/><path class="cls-5" d="M974,470.77l0-2.7h4l1,1.06a.78.78,0,0,1,.32.72c0,.28-.09.41-.15.41a6.1,6.1,0,0,1-2.32,1.19,5.22,5.22,0,0,1-1.28.27C974.85,471.67,974.23,471.53,974,470.77Z" transform="translate(-888.08 -468.07)"/><path class="cls-6" d="M993,470.94l0-1.84c.44-.74,1.48-.35,2-1h1C998.28,472.37,994.91,470.89,993,470.94Z" transform="translate(-888.08 -468.07)"/><path class="cls-7" d="M995,468.07c-.27,1.06-1.17.95-2,1l-1-1Z" transform="translate(-888.08 -468.07)"/><path class="cls-8" d="M988.79,472.45c9.53.88,17,4.81,21.3,13.85,1.18,2.46.26,5.28,2,7.47a27.93,27.93,0,0,1,0,9.65A72,72,0,0,1,1007,516c-2.37.1-2.87-1.06-2.08-3.09,2.08-4.53,4.78-8.85,4.86-14.07,0-2,.06-3.94-1-5.73a4,4,0,0,1-1-2c.12,1-.41,2,.09,3-.09,3-2.06,3.46-4.47,3.29-14.78-1.09-29.58-.57-44.37-.34-1.3-1.13-2.89-.24-5.3-.94,1.84.65,2.95,0,3.6,1.05l-18.27,1.94c-1.68-.84-3.94.76-5.35-1.25,2.41-2.3,5.77-3.56,7.36-6.75,1.53-3.65,4.83-5.71,7.5-8.34a38.56,38.56,0,0,0,4.91-4.21,6.78,6.78,0,0,1,2.25-1.31,10.61,10.61,0,0,0,5-2.72,7.9,7.9,0,0,1,1.27-.63c4.45-1.87,9.21-1.73,13.88-2.24a8.46,8.46,0,0,1,1.54-.52C981.31,470.83,985.26,469.82,988.79,472.45Z" transform="translate(-888.08 -468.07)"/><path class="cls-8" d="M1004.92,512.92A3.1,3.1,0,0,0,1007,516c2.63,1.4,4.63-.92,7-1.18,1.52-.35,3-1.11,4.62-.29,1.23,1.23.2,1.8-.72,2.4-9.3,3.43-14.55,11.27-12.8,19.56a14,14,0,0,0,8.74,10.56c.78.34,1.61,1.06,1,1.73-1.06,1.19-2.55.79-3.9.23-5.07-2.34-9.92-5.42-15.88-4.86-17.68-.44-35.36,0-53-.21-2.1,0-4.34.54-6.19-1.05,1.49-6.28,4.25-8.46,11.48-8.2A94.66,94.66,0,0,0,971.07,533C984.57,530.05,996.52,524.47,1004.92,512.92Z" transform="translate(-888.08 -468.07)"/><path class="cls-9" d="M909.94,533.94a6,6,0,0,1,0-1.47c1.75-6.68,7.68-11.76,13.27-11.42,4.61.28,7.79,3.63,8.43,8.88.8,6.52-3.69,13.91-9.59,15.81-5.72,1.85-10.16-.66-12-6.76C910.65,537.28,909.81,535.62,909.94,533.94Z" transform="translate(-888.08 -468.07)"/><path class="cls-10" d="M942.58,524.29c15.59-7,30.91-11.32,47.28-11.41,1.74,0,3.47.19,3.87,2.28s-1.08,3-2.61,3.78a44.72,44.72,0,0,1-11.7,4.15,155,155,0,0,1-29.69,3C947.63,526.07,945.4,526.25,942.58,524.29Z" transform="translate(-888.08 -468.07)"/><path class="cls-8" d="M1029.59,530c0,6.88-5.94,13.49-12.13,13.56-5.11.07-8.54-3.8-8.51-9.57,0-7.17,5.66-13.46,12-13.48C1026.13,520.52,1029.62,524.37,1029.59,530Z" transform="translate(-888.08 -468.07)"/><path class="cls-11" d="M955.85,477.89l-1.55,1.25c-2.39.81-4.13,2.54-6,4.15-2.79,1.4-4.12,4.75-7.35,5.6a21.27,21.27,0,0,1-17.56,4.8c10.15-14.42,24.65-19.53,40.24-22.76,1-.33,2-.63,2.59.62-.63,2.84-3.84,1.89-5.25,3.58l.08-.08C959.39,476.1,957.56,476.87,955.85,477.89Z" transform="translate(-888.08 -468.07)"/><path class="cls-12" d="M893,511c-.53-3.92,2.13-5.89,4.79-7.86,1.71.72-.09,2.5,1.32,3.65,3.63-3.63,7.14-7.62,12.55-8.77a3,3,0,0,1,2.65,1c2.39,3.72.08,6.42-1.87,9.32-3.27,4.82-8.46,6.47-13.74,8.65-1.13-1.81.41-5.76-3.72-5.34C894.34,511.52,893.53,511.71,893,511Z" transform="translate(-888.08 -468.07)"/><path class="cls-13" d="M935.83,542.9c17.89,0,35.78,0,53.67.11,1.88,0,4-.79,5.55,1.15-11.94.93-23.9.21-35.85.39q-10,.16-20,0C938.09,544.47,935.79,545.86,935.83,542.9Z" transform="translate(-888.08 -468.07)"/><path class="cls-14" d="M911.05,499a22.52,22.52,0,0,0-8.81,6.09c-1.41,1.7-2.47,4.67-5.25,2.92-2.56-1.62,2.12-2.93.83-4.88q6.81-3.53,13.6-7.07c2.62-1.36,4.77-1.5,5.7,2C915,497.57,913.05,498.56,911.05,499Z" transform="translate(-888.08 -468.07)"/><path class="cls-15" d="M911.76,553.06c-5.91-.9-9-3.38-9-7.17,1.62-1.27.49-3,.82-4.53.21-1-.53-2.52,1.47-2.38.6,6.44,3.82,10.88,10,13.06C914.58,554.44,913,553.21,911.76,553.06Z" transform="translate(-888.08 -468.07)"/><path class="cls-16" d="M893,511l2,.7c-1.75,3.57.36,8.09-2.77,11.33l-1.16,0C890.73,518.84,893,515.11,893,511Z" transform="translate(-888.08 -468.07)"/><path class="cls-17" d="M919.16,515.07c-2.5,1.16-5,2.28-7.48,3.48-.93.45-2,1-2.51-.15s.6-1.73,1.39-2.23c2.06-1.27,4.17-2.47,6.76-2.12A1.36,1.36,0,0,1,919.16,515.07Z" transform="translate(-888.08 -468.07)"/><path class="cls-18" d="M941,488.89c2.09-2.17,3.68-4.9,6.76-5.95a1,1,0,0,1,1.6.26c-2.11,3.32-5.53,5.27-8.27,7.93Z" transform="translate(-888.08 -468.07)"/><path class="cls-19" d="M1018.82,515.07l-4.84-.24c2-2.76,4.89-3.18,8-2.73a1.23,1.23,0,0,1,.12,1.71l-1.1,1A1.42,1.42,0,0,1,1018.82,515.07Z" transform="translate(-888.08 -468.07)"/><path class="cls-20" d="M933.7,497.88c1.77.49,3.9-.6,5.35,1.25a17.87,17.87,0,0,1-6.76,1.05c-1,.22-2.16.9-2.19-1Z" transform="translate(-888.08 -468.07)"/><path class="cls-21" d="M927,513.14c1.8,0,3.34.49,5.39,2.27l-11.31-.52C922.28,511.78,925.27,514.67,927,513.14Z" transform="translate(-888.08 -468.07)"/><path class="cls-22" d="M904,529.76c.39-1.66,1.08-3.06,3.13-3.58.19,2.7-1,4.88-1.86,7.16A3.14,3.14,0,0,1,904,529.76Z" transform="translate(-888.08 -468.07)"/><path class="cls-23" d="M905.05,539c-2.34,1.78.55,5.29-2.29,6.91,1-2.61.18-5.29.37-7.93,1.39-1-1-3.82,2-4Z" transform="translate(-888.08 -468.07)"/><path class="cls-24" d="M927,513.14c-1.62,1.78-4.34-.15-5.92,1.75l-1.89.18-1.84-1C920.37,512,923.69,512.78,927,513.14Z" transform="translate(-888.08 -468.07)"/><path class="cls-15" d="M905.11,534c-1.67.82-.44,3.09-2,4-.78-2.84-1-5.62.83-8.2.42,1.2.84,2.39,1.27,3.58A.39.39,0,0,1,905.11,534Z" transform="translate(-888.08 -468.07)"/><path class="cls-25" d="M1022.12,513.81l-.12-1.71c1.77,1.5,5.43-.56,6,3.19Z" transform="translate(-888.08 -468.07)"/><path class="cls-26" d="M1010.93,549c.54-1.28,4.11,1.92,2.9-2a4,4,0,0,1,3.59,1.66C1015.26,550.66,1013.14,550.4,1010.93,549Z" transform="translate(-888.08 -468.07)"/><path class="cls-23" d="M911.76,553.06c1.14-.18,2.43.14,3.27-1a4.34,4.34,0,0,1,3.53,1.34A9,9,0,0,1,911.76,553.06Z" transform="translate(-888.08 -468.07)"/><path class="cls-27" d="M966,471.87l-2.33-.94c1.56-1,3.33-1,5.09-1l2.19,1-.41.59C969,471.87,967.63,473.45,966,471.87Z" transform="translate(-888.08 -468.07)"/><path class="cls-28" d="M909.94,533.94c1.65,1.64,1.59,3.32.13,5A5.89,5.89,0,0,1,909.94,533.94Z" transform="translate(-888.08 -468.07)"/><path class="cls-29" d="M911.05,499c2-.5,3.62-3.34,6.07-1l-2.79,1Z" transform="translate(-888.08 -468.07)"/><path class="cls-30" d="M927.76,501.3c-1,.34-2.73,1.28-2.92,0-.33-2.13,1.77-2.11,3.35-2.22C928.58,500,927.92,500.58,927.76,501.3Z" transform="translate(-888.08 -468.07)"/><path class="cls-31" d="M927.76,501.3c-1.13-1,0-1.52.43-2.18l1.91.07,2.19,1C931,501.34,929.24,500.79,927.76,501.3Z" transform="translate(-888.08 -468.07)"/><path class="cls-32" d="M1007.86,494.13a5.15,5.15,0,0,1-.6-4.6,3,3,0,0,1,1.54,3.59Z" transform="translate(-888.08 -468.07)"/><path class="cls-33" d="M1018.82,515.07l2.2-.31c.8,2.06.8,2.06-3.13,2.18Z" transform="translate(-888.08 -468.07)"/><path class="cls-34" d="M957.32,497.19l-4.43-.51c2.91-.76,4.6-1.17,6.13.4Z" transform="translate(-888.08 -468.07)"/><path class="cls-35" d="M898.38,520.12a4.29,4.29,0,0,1-1.09,1.08c-.84.41-1-.25-1-.91a1.17,1.17,0,0,1,1.18-1.19C898,519.07,898.4,519.17,898.38,520.12Z" transform="translate(-888.08 -468.07)"/><path class="cls-36" d="M896,529c-1.55,1.63-3.08,1.53-4.6,0Z" transform="translate(-888.08 -468.07)"/><path class="cls-37" d="M1023.88,474.53c-3.94,6.64.64,12.43,1.21,19.48a49.63,49.63,0,0,1-7.34-12.15C1014.82,475.37,1015.85,474,1023.88,474.53Z" transform="translate(-888.08 -468.07)"/><path class="cls-38" d="M1028.31,509.44A28.84,28.84,0,0,1,1024.8,499a2.36,2.36,0,0,1,1.54-2.79c1.48-.42,2,.86,2.35,1.95C1029.75,501.63,1030.53,505.15,1028.31,509.44Z" transform="translate(-888.08 -468.07)"/><path class="cls-39" d="M988.79,472.45,976,472.12a.68.68,0,0,1-.3-.72c.08-.26.16-.38.24-.38h-.06c3.73-.66,7.46-1.88,11.18,0l1.91.17C988.93,471.61,988.86,472,988.79,472.45Z" transform="translate(-888.08 -468.07)"/><path class="cls-6" d="M1018,493.88c-1.59-1.81-.91-4.21-2.15-6.43,2.46-.21,2.54,1.46,3.13,2.57C1018.24,491.21,1019.2,492.82,1018,493.88Z" transform="translate(-888.08 -468.07)"/><path class="cls-40" d="M1012.1,503.42c0-3.21,0-6.43,0-9.65A14.28,14.28,0,0,1,1012.1,503.42Z" transform="translate(-888.08 -468.07)"/><path class="cls-41" d="M1018,493.88c.21-1.32-.54-2.87,1-3.86C1019.89,491.63,1020.31,493.1,1018,493.88Z" transform="translate(-888.08 -468.07)"/><path class="cls-42" d="M979,469.93c0-.27,0-.54,0-.8l7.94-.06c0,.29.05.58.08.86A11,11,0,0,1,979,469.93Z" transform="translate(-888.08 -468.07)"/><path class="cls-43" d="M979,469.93h8c0,.36.07.72.11,1.08H975.9C976.58,469.69,977.94,470.3,979,469.93Z" transform="translate(-888.08 -468.07)"/><path class="cls-44" d="M976,471l.06,1.1h0c-1.76.24-3.72,1.54-5-.92l-.15-.29,3.08-.15Z" transform="translate(-888.08 -468.07)"/><path class="cls-45" d="M971.08,471.21c1.45,1.45,3.37.36,5,.92l-15.07,3c.47-2.91,3.57-1.8,5-3.26Z" transform="translate(-888.08 -468.07)"/><path class="cls-44" d="M949.33,483.2l-1.6-.26c1.8-1.94,3.12-4.72,6.57-3.8C952.88,480.78,951.67,482.68,949.33,483.2Z" transform="translate(-888.08 -468.07)"/><path class="cls-46" d="M955.85,477.89c.86-2.57,2.86-3,5.22-2.84C960.1,477.41,958.3,478.25,955.85,477.89Z" transform="translate(-888.08 -468.07)"/><path class="cls-47" d="M1010.77,532.13v4.59C1009.67,534.67,1009.91,533.39,1010.77,532.13Z" transform="translate(-888.08 -468.07)"/></svg>