<svg id="Layer_1" data-name="Layer 1" xmlns="http://www.w3.org/2000/svg" viewBox="0 0 811.44 214"><defs><style>.cls-1{fill:#fff;}</style></defs><title>rent-a-car-logo white</title><path class="cls-1" d="M914,433c7.16,1.16,14.35,2.17,21.48,3.5,36.93,6.86,71.63,20.37,105.43,36.24,17.15,8.05,33.68,17.42,50.7,25.77a44.34,44.34,0,0,0,15.11,4.37c60.73,5.66,121.15,13,179.71,31.12,21.41,6.64,42,14.89,60.11,28.54,7.52,5.69,14.32,12,17.61,21.2.63,1.74.72,3.67,1.29,6.74-2.66-1.65-4.21-2.51-5.65-3.53-28.5-20.26-59.77-33.42-94.82-36.55-25.26-2.26-49.81,1.58-73.65,10.06-11.42,4.07-22.58,9.09-34.24,12.29-19.14,5.25-38.39,3.14-57.15-2.44-27.74-8.25-55.25-17.23-83-25.53-41.54-12.44-84-20.84-126.91-26.55-43.55-5.8-87.23-11-131-14.68-37.79-3.19-75.78-4.19-113.71-5.6-22.13-.83-44.3-.66-66.45-.73-8.3,0-16.59.5-24.89.78v-2c5.15-4.69,10.44-9.24,15.41-14.11,2.84-2.79,5.87-3.68,9.82-3.76,14.44-.27,29.11.5,43.28-1.77,48.11-7.69,96-16.69,144.07-24.85,32.63-5.54,65.36-10.52,98-15.7,6.77-1.07,13.58-1.88,20.37-2.81Zm47.21,71.2-.06,1.17,134.53,8.84a7.68,7.68,0,0,0-3.3-3.7c-32.12-19.42-65.54-36.2-100.76-49.25-24.1-8.93-48.7-15.83-74.42-18.35-27.82-2.73-55.26.59-82.47,5.61-38.78,7.16-77.42,15.09-116.12,22.72-13.49,2.67-27,5.43-40.45,8.14a7.92,7.92,0,0,0,3.92.45c11.18-1.73,22.38-3.38,33.53-5.35,48.66-8.61,97.22-17.78,146-25.81a208.61,208.61,0,0,1,80,2.13c49,11,94.17,31.57,137.85,55.78a16.23,16.23,0,0,1,2.76,2.57l-.64,1Zm-366.53-18v.89H615v-.89ZM915.13,501l-.11,1.27,19.81,1.87c0-.48.09-1,.14-1.44Zm-255-18.84v1.28l13.6-2.21-.24-1.44Z" transform="translate(-554 -433)"/><path class="cls-1" d="M885,433c-6.79.93-13.6,1.74-20.37,2.81-32.69,5.18-65.42,10.16-98,15.7-48.05,8.16-96,17.16-144.07,24.85-14.17,2.27-28.84,1.5-43.28,1.77-4,.08-7,1-9.82,3.76-5,4.87-10.26,9.42-15.41,14.11V433Z" transform="translate(-554 -433)"/><path class="cls-1" d="M754,647c0-4-.68-8.22.08-12.12,5.42-27.75,11.13-55.46,16.76-83.17.94-4.63.72-10.24,6.9-11.45,6.89-1.35,13.42-.23,18.2,5.47a45.11,45.11,0,0,1,4.94,8q15,28.19,30,56.39a22.61,22.61,0,0,0,2.71,3.17c3.59-18,7-35,10.41-52.09q1.56-7.85,3-15.7c.63-3.54,2.57-5.07,6.25-4.89,4.43.21,8.89.05,14.18.05-1.72,8.69-3.33,16.78-4.93,24.88-4.84,24.47-9.53,49-14.69,73.37-.63,3-3.81,5.37-5.81,8H832c-4.18-4.53-9.47-8.46-12.35-13.71C809,613.94,799.17,594.14,789,574.53a33.1,33.1,0,0,0-2.29-3.19c-.42,1.57-.66,2.3-.81,3Q779.84,605.2,773.8,636c-1.79,9.17-1.85,9.25-10.8,10.11-.36,0-.67.58-1,.88Z" transform="translate(-554 -433)"/><path class="cls-1" d="M725,647a22.32,22.32,0,0,0-4.54-1c-17.48-.06-35,0-52.45,0-5.85,0-6.84-1.21-5.7-6.85,6.19-30.8,12.48-61.59,18.54-92.42,1-4.87,3.31-6.65,8.15-6.62,19.82.15,39.64,0,59.45.08,5.47,0,6.37,1.19,5.35,6.68-1.93,10.4-2.87,11.09-13.37,11-12-.1-24,.09-36-.08-4.37-.06-6.3,1.72-6.86,6a130.13,130.13,0,0,1-2.73,13.67c-1.25,5.19-.58,6.33,4.71,6.36,12.49.06,25,0,37.47,0,6.48,0,6.83.47,5.36,6.92-2.37,10.33-3.32,11.07-14.14,11.08-11,0-22,.14-33-.07-4.16-.08-6.08,1.57-6.74,5.54-.9,5.41-2,10.79-3.17,16.15-.92,4.19.85,5.26,4.77,5.18,13.8-.28,27.62-.37,41.43-.46,5.86,0,6.33.55,5.47,6.4-.68,4.53-.45,9.47-5.06,12.42Z" transform="translate(-554 -433)"/><path class="cls-1" d="M890,647c-.58-3.26-2.17-6.73-1.57-9.75,4.89-24.62,10.16-49.16,15.41-73.71.88-4.11-.18-5.82-4.66-5.61-6.48.29-13,0-19.47.11-3.63.09-5.21-.74-4.28-4.87,3.34-14.88,0-13,15.89-13,20.63.06,41.27.48,61.9.58,4,0,5.14,1.37,4,5.1-.63,2.06-.89,4.23-1.39,6.33-1,3.95-3.49,5.83-7.57,5.8-5.32,0-10.65.09-16,0-6.63-.13-7.93.76-9.17,7.06q-5.62,28.63-11.22,57.27c-1.12,5.71-2.53,11.37-3.4,17.12-.72,4.84-3,7.13-8,6.69-1.14-.1-2.34.55-3.51.86Z" transform="translate(-554 -433)"/><path class="cls-1" d="M972,647c-2.28-2.31-1.81-4.49-.17-7.09,12.2-19.23,24.17-38.61,36.51-57.75a15.92,15.92,0,0,1,7.64-5.87c5.83-2,10.12-2.94,12.12,6.37,4,18.68,8.69,37.21,13,55.83.56,2.45,3,5.61-.95,7.33-4.47,2-10.55-.23-11.92-4.22a64.75,64.75,0,0,1-2.21-9.19c-.74-3.87-2.68-5.69-6.85-5.48-5.6.28-11.23.07-17.76.07,2.19-3.78,3.44-7.45,6-9.75,1.84-1.69,5.32-2,8.11-2.16,5.46-.36,6.2-1,5.11-6.22-1.2-5.77-2.47-11.53-4-18.56-7,11.68-13.46,22.31-19.86,33-2,3.42-4.21,6.79-6,10.34-2.92,5.77-6.68,10.64-12.73,13.39Z" transform="translate(-554 -433)"/><path class="cls-1" d="M1270,647c-4.62-1.58-6.37-5.07-7.06-9.69-.94-6.35-2.51-7.46-8.89-7.47h-11.78c1.16-8,4.69-11.38,11.38-10.84,4,.31,5.31-1,4.36-4.77-1.25-4.93-2.49-9.87-4-15.94-5.4,8.89-10.22,16.79-15,24.7-3.36,5.55-6.61,11.16-10,16.69-4.21,6.83-7.07,7.8-15.74,5.33a24.1,24.1,0,0,1,1.36-3c10.55-16.93,21.16-33.83,31.68-50.79,2.78-4.48,6.4-7.11,11.88-6.63,3.15.28,5.06,1.63,5.82,5,3.54,15.72,7.29,31.39,11,47.08a11.3,11.3,0,0,0,.88,3.36c2.37,3.75.41,5.6-2.83,7Z" transform="translate(-554 -433)"/><path class="cls-1" d="M1183,647a31.37,31.37,0,0,0-4.37-1.75c-10.86-2.55-16.3-9.47-16.67-20.53-.9-26.89,20.62-47.46,53.53-38.52,3.29.9,3.74,3.33,3,6.31s-1.94,4.67-5.51,4.11c-5.22-.83-10.55-1.82-15.79-1.6-14.87.62-25.69,15.38-22.39,29.79,1.29,5.6,4.51,9.69,10.19,10.15,6.35.52,12.81-.2,19.21-.5a18,18,0,0,0,3.71-1c3.08,6.14,1.49,9.82-4.62,11.34-2.79.68-5.55,1.43-8.33,2.15Z" transform="translate(-554 -433)"/><path class="cls-1" d="M611.79,540.89c9.32,0,18.65-.42,27.94.09,17.43,1,24.59,10.85,20.84,27.95-2.66,12.17-9.66,21-20.57,26.8-1.31.7-2.68,1.31-4,1.94-6.21,2.89-6.38,3.32-3.22,9.17q8.75,16.26,17.54,32.5c.55,1,1.7,2.17,1.52,3-.26,1.3-1.4,3.39-2.27,3.44a101.23,101.23,0,0,1-16-.05,7.87,7.87,0,0,1-5.21-3.82c-6.72-13-13.2-26.13-19.58-39.3-3.15-6.5-1.07-10.5,5.85-13.09a106,106,0,0,0,15.46-6.77c5.44-3.11,8.53-8.33,9.59-14.56,1-5.69-1.38-9.4-7.1-9.74-9.13-.54-18.31-.53-27.46-.28-1.2,0-3,2.71-3.38,4.4-4.36,21-8.5,42.08-12.69,63.14-.94,4.73-1.89,9.46-2.74,14.21-.78,4.28-3,6.42-7.59,6a58.68,58.68,0,0,0-8.49,0c-4.4.24-5.52-1.65-4.66-5.82,4.66-22.66,9.17-45.35,13.72-68,1.74-8.64,3.61-17.26,5.13-25.94.77-4.4,2.83-6.28,7.38-6.11,6.66.25,13.33.06,20,.06Z" transform="translate(-554 -433)"/><path class="cls-1" d="M1284.05,644.34c3.59-18.3,7.11-36.71,11-55.05.35-1.67,2.93-4.07,4.49-4.08,10.13-.1,20.29,0,30.39.77,7.33.55,11.08,6,9.92,13.29-1.32,8.23-5.23,14.73-13.18,18.09-4.39,1.85-4.67,4.31-2.35,8.15,2.91,4.83,5.42,9.91,8,14.92,2.47,4.76,1.83,5.62-3.61,5.76-4.86.13-8.4-1.89-10.51-6.16-2.94-6-5.79-12-8.47-18-2.27-5.15-1.36-7.06,4.08-9,4.77-1.71,9.38-3.56,11.88-8.41,2.76-5.35,1-8.6-5-9.35-2.63-.32-5.32-.21-8-.39-4.91-.34-6.8,2.69-7.66,6.81-2.61,12.53-5.17,25.07-7.76,37.6C1295.78,646.48,1291.44,648.24,1284.05,644.34Z" transform="translate(-554 -433)"/><path class="cls-1" d="M961.21,504.2l120.3,6,.64-1a16.23,16.23,0,0,0-2.76-2.57c-43.68-24.21-88.82-44.81-137.85-55.78a208.61,208.61,0,0,0-80-2.13c-48.75,8-97.31,17.2-146,25.81-11.15,2-22.35,3.62-33.53,5.35a7.92,7.92,0,0,1-3.92-.45c13.49-2.71,27-5.47,40.45-8.14,38.7-7.63,77.34-15.56,116.12-22.72,27.21-5,54.65-8.34,82.47-5.61,25.72,2.52,50.32,9.42,74.42,18.35,35.22,13.05,68.64,29.83,100.76,49.25a7.68,7.68,0,0,1,3.3,3.7l-134.53-8.84Z" transform="translate(-554 -433)"/><path class="cls-1" d="M594.68,486.21H615v.89H594.69Z" transform="translate(-554 -433)"/><path class="cls-1" d="M915.13,501l19.84,1.7c-.05.48-.09,1-.14,1.44L915,502.23Z" transform="translate(-554 -433)"/><path class="cls-1" d="M660.1,482.12l13.37-2.37.24,1.44-13.6,2.21Z" transform="translate(-554 -433)"/></svg>