<?xml version="1.0" encoding="utf-8"?>
<!-- Generator: Adobe Illustrator 24.0.1, SVG Export Plug-In . SVG Version: 6.00 Build 0)  -->
<svg version="1.1" id="Layer_1" xmlns="http://www.w3.org/2000/svg" xmlns:xlink="http://www.w3.org/1999/xlink" x="0px" y="0px"
	 viewBox="0 0 1920 1080" style="enable-background:new 0 0 1920 1080;" xml:space="preserve">
<style type="text/css">
	.st0{fill:#A7A5A5;}
	.st1{fill:#EDECEC;}
	.st2{fill:#DFDFDF;}
	.st3{fill:#CBCACA;}
</style>
<g>
	<path d="M1366.17,586.97c0.08,3.96-1.57,2.56-3.43,1.18c-12.36-9.13-25.59-16.78-39.65-22.97c-43.46-19.14-87.54-20.49-132.18-4.39
		c-5.63,2.03-11.38,3.83-16.8,6.32c-22.06,10.16-44.57,10.12-67.77,4.49c-25.9-6.29-50.86-15.47-76.22-23.42
		c-39.1-12.25-79.12-20.53-119.52-27.19c-37.77-6.22-75.71-11.06-113.8-14.67c-31.8-3.02-63.67-5.18-95.59-6.7
		c-41.58-1.98-83.18-3.05-124.81-2.4c-5.82,0.09-11.63,0.53-17.45,0.71c-1.19,0.04-2.82,1.18-3.53-0.52
		c-0.55-1.33,1.06-1.9,1.83-2.64c5.03-4.85,10.13-9.63,15.19-14.45c1.53-1.46,3.25-2.19,5.41-2.02c26.81,2.11,53.1-2.33,79.38-6.57
		c57.94-9.35,115.3-21.96,173.28-31.17c17.42-2.77,34.92-4.85,52.49-6.43c1.35-0.12,3.06,0.75,4.03-1.03c3,0,6,0,9,0
		c3.33,1.48,6.66,1.49,10,0c2.67,0,5.33,0,8,0c0.41,0.95,1.28,0.9,2.09,0.96c21.38,1.57,42,6.74,62.26,13.42
		c39.95,13.16,77.86,30.9,114.46,51.51c3.52,1.98,7.14,3.57,11.21,3.89c19.74,1.56,39.43,3.67,59.08,6.06
		c42,5.12,83.52,12.61,124.01,25.12c21.71,6.71,42.67,15.15,60.92,29.08C1356.21,569.38,1363.28,576.64,1366.17,586.97z
		 M968.05,505.87c5.66,0.33,11.33,0.65,16.99,0.98c37.47,2.56,74.95,5.12,112.42,7.67c0.05-0.48,0.11-0.97,0.16-1.45
		c-0.95-0.65-1.88-1.35-2.86-1.95c-32.53-19.67-66.33-36.75-102.02-49.96c-32.53-12.04-65.76-20.45-100.81-19.23
		c-28.54,1-56.53,6.2-84.45,11.6c-36.41,7.05-72.72,14.61-109.08,21.92c-6.73,1.35-13.5,2.51-20.62,3.83
		c1.14,1.47,1.98,1.19,2.73,1.07c12.32-1.92,24.68-3.65,36.95-5.83c48.62-8.61,96.77-19.87,145.84-25.98
		c27.61-3.44,55.05-3.4,82.33,3.05c48.03,11.36,92.38,31.61,135.28,55.44c0.91,0.5,2.26,0.78,2.01,2.97
		c-32.66-1.56-65.31-3.11-97.95-4.67c-5.62-0.29-11.25-0.59-16.87-0.88c-2.25-0.56-4.48-0.8-7.33,0.22
		C963.55,506.38,965.83,505.89,968.05,505.87z M912.3,501.64c8.82,1.14,17.68,3.11,26.83,1.77
		C930.34,501.5,921.45,500.84,912.3,501.64z M619.48,486.35c-8.86,0-17.71,0-26.57,0C601.72,488.73,610.51,488.1,619.48,486.35z
		 M657.64,482.73c6.8,0.71,13.36-0.35,19.7-2.83C670.63,479.8,664.25,482.11,657.64,482.73z M946.73,504.06
		c3.13,1.02,6.26,1.48,9.24-0.31C952.86,503.24,949.78,502.55,946.73,504.06z"/>
	<path d="M756.06,646.92c-2.33-2.35-2.66-5.12-1.89-8.22c7.57-30.32,12.49-61.19,18.72-91.79c0.9-4.42,2.97-6.21,7.12-6.75
		c9.4-1.22,16.31,2.35,20.84,11.91c9.19,19.41,19.92,37.98,30.16,56.81c0.83,1.52,1.21,3.45,3.65,4.51
		c2.13-10.35,4.27-20.49,6.29-30.65c2.46-12.38,4.88-24.76,7.2-37.17c0.66-3.55,2.28-5.17,6.1-4.81c3.46,0.32,7.04,0.39,10.47-0.11
		c3.65-0.54,3.45,1.08,2.94,3.61c-5.7,28.33-11.36,56.66-17.04,84.99c-0.49,2.44-1.29,4.86-1.45,7.32
		c-0.36,5.4-2.17,9.44-8.13,10.36c-2,0-4,0-6,0c-7.38-2.54-11.84-7.87-15-14.84c-8.99-19.86-19.83-38.77-30.05-58
		c-0.53-1-0.57-2.76-2.72-2.59c-4.43,22.45-8.97,44.91-13.23,67.41c-0.95,5.02-2.75,8.01-8.42,7.09c-1.14-0.19-2.71-0.63-3.55,0.94
		C760.06,646.92,758.06,646.92,756.06,646.92z"/>
	<path d="M727.07,646.92c-1.76-1.82-4.05-1.07-6.08-1.08c-17.65-0.08-35.31-0.17-52.96,0.04c-4.29,0.05-5.64-1.13-4.77-5.41
		c6.41-31.6,12.72-63.22,18.98-94.85c0.73-3.7,2.41-5.33,6.37-5.3c20.66,0.14,41.31,0.14,61.97,0c4.29-0.03,5.04,1.55,4.24,5.43
		c-2.54,12.35-2.43,12.2-15.14,11.95c-11.66-0.23-23.32,0.05-34.98-0.11c-3.98-0.06-5.66,1.54-6.13,5.42
		c-0.63,5.27-1.6,10.52-3.21,15.61c-1.26,4,0.43,5.44,4.42,5.4c12.99-0.15,25.98-0.16,38.98-0.18c5.63-0.01,5.96,0.48,4.72,6.13
		c-0.32,1.46-0.7,2.91-0.95,4.38c-0.85,5.17-4.06,7.28-9.09,7.26c-11.49-0.03-22.98,0.14-34.46-0.03c-8.32-0.13-8.57-0.05-9.92,7.98
		c-0.77,4.59-1.79,9.13-2.71,13.69c-0.96,4.72-0.18,5.82,4.63,5.49c13.65-0.92,27.3-0.22,40.95-0.4c6.86-0.09,7.22,0.43,5.9,7.05
		c-0.87,4.36-0.23,9.49-5.75,11.54C730.4,646.92,728.73,646.92,727.07,646.92z"/>
	<path d="M892.03,646.92c-3.46-1.99-3.76-5.01-2.85-8.49c6.43-24.44,10.16-49.46,15.58-74.11c1.41-6.42,1.28-6.45-5.06-6.46
		c-6.83-0.01-13.66-0.09-20.49,0.04c-2.79,0.05-3.4-0.84-2.8-3.53c3.66-16.61-0.42-13.86,16.39-13.92
		c20.65-0.08,41.29,0.35,61.94,0.33c3.8,0,4.23,0.96,3.5,4.5c-2.62,12.69-2.47,12.74-15.42,12.72c-3.83,0-7.69,0.19-11.48-0.19
		c-4.51-0.45-6.24,1.68-7.03,5.74c-4.05,20.89-8.22,41.75-12.35,62.62c-0.9,4.56-2.19,9.08-2.69,13.68
		c-0.54,4.96-3.02,6.54-7.67,6.14c-1.48-0.13-3.35-0.85-4.56,0.92C895.36,646.92,893.69,646.92,892.03,646.92z"/>
	<path d="M974,646.92c-3.03-1.53-3.4-3.13-1.39-6.27c12.62-19.74,24.96-39.67,37.42-59.51c2.57-4.1,10.35-6.82,14.97-5.57
		c1.99,0.54,2.56,1.97,2.95,3.59c4.99,20.98,9.94,41.97,14.94,62.95c0.68,2.87-0.36,3.77-3.25,3.87c-8.14,0.31-9.94-0.87-11.54-8.93
		c-2.43-12.25-2.17-9.91-12.32-10.1c-4.12-0.08-8.23-0.01-13.3-0.01c2.21-3.76,3.97-6.89,5.88-9.92c1.21-1.93,3.17-2.06,5.29-1.97
		c9.43,0.42,9.44,0.37,7.47-9.07c-1.05-5.03-2.12-10.06-3.39-16.02c-3.18,5.13-5.99,9.53-8.67,14
		c-6.99,11.69-14.07,23.32-20.8,35.16c-2.42,4.25-6.29,5.94-10.27,7.79C976.67,646.92,975.34,646.92,974,646.92z"/>
	<path d="M1184.95,646.92c-1.42-1.74-3.61-1.35-5.43-1.8c-10.61-2.62-16.12-9.31-16.43-20.26c-0.77-27.49,20.79-45.16,48.24-39.54
		c1.47,0.3,2.93,0.6,4.41,0.85c4.01,0.7,4.36,3,3.58,6.6c-0.81,3.77-2.35,4.34-5.93,3.5c-9.74-2.28-19.54-3.23-28.19,3.41
		c-7.74,5.95-11.27,13.95-9.84,23.64c1.16,7.88,5.72,11.76,13.9,12.57c5.17,0.51,10.28,0.06,15.39-1c1.82-0.38,4.86-2.84,5.46,0.11
		c0.61,3,0.97,7.4-3.39,8.94c-2.79,0.98-5.82,1.28-8.74,1.92c-1.05,0.23-2.42-0.43-3.03,1.05
		C1191.61,646.92,1188.28,646.92,1184.95,646.92z"/>
	<path class="st0" d="M906.02,433.1c-3.33,1.49-6.66,1.48-10,0C899.36,433.1,902.69,433.1,906.02,433.1z"/>
	<path d="M612.31,540.38c10.16-0.53,20.31-0.25,30.42,0.81c14.99,1.56,21.58,10.51,19.1,25.48c-2.44,14.73-10.93,24.58-24.35,30.57
		c-7.43,3.32-7.34,3.34-3.48,10.43c6.13,11.24,12.11,22.56,18.26,33.78c1.78,3.25,1.61,4.64-2.6,4.4
		c-4.81-0.27-9.66-0.18-14.48-0.02c-2.73,0.09-4.29-1.02-5.46-3.38c-6.64-13.4-13.45-26.72-20.02-40.16
		c-2.81-5.74-0.57-10.59,5.61-12.4c5.78-1.69,11.43-3.53,16.37-7.11c4.95-3.59,8.09-8.33,9.11-14.36c1.04-6.15-1.64-9.91-7.81-10.18
		c-8.81-0.38-17.65-0.13-26.47-0.43c-3.92-0.14-3.65,2.71-4.1,4.94c-5.12,25.58-10.29,51.15-15.12,76.78
		c-0.94,5.02-2.96,6.91-7.99,6.2c-2.77-0.39-5.65-0.13-8.47,0.1c-3.91,0.32-5.02-1.15-4.22-5c3.73-18.06,7.26-36.16,10.9-54.24
		c2.79-13.84,5.82-27.64,8.32-41.53c0.71-3.95,2.46-4.82,5.99-4.73C598.65,540.51,605.48,540.38,612.31,540.38z"/>
	<path d="M1314.65,584.86c5.47,0.33,10.98,0.31,16.39,1.07c7.22,1.01,10.75,6.38,9.56,13.69c-1.35,8.32-5.75,14.58-13.5,17.87
		c-4.33,1.83-4.55,3.68-2.3,7.39c3.26,5.39,5.91,11.15,8.99,16.65c1.86,3.31,0.79,4.31-2.66,4.58c-5.41,0.42-9.48-1.43-11.89-6.33
		c-2.92-5.95-5.8-11.93-8.5-17.99c-2.14-4.8-1.12-6.98,3.96-8.64c5.16-1.7,10.06-3.64,12.41-9.09c2.31-5.35,0.52-8.39-5.19-8.93
		c-14.4-1.35-14.48-1.37-17.4,12.46c-2.4,11.36-4.6,22.77-6.86,34.16c-0.33,1.65-0.41,3.56-2.47,3.85c-3.1,0.44-6.3,0.85-9.3-0.46
		c-1.15-0.5-0.51-1.74-0.33-2.69c3.51-17.92,7.03-35.84,10.52-53.76c0.56-2.84,2.4-3.67,5.07-3.62c4.49,0.09,8.98,0.02,13.48,0.02
		C1314.64,585.03,1314.65,584.94,1314.65,584.86z"/>
	<path d="M1255.14,597.63c-8.37,13.87-16.07,26.46-23.61,39.15c-5.75,9.68-5.66,9.73-17.05,8.76c-0.43-1.9,1.03-3.04,1.86-4.38
		c10.53-16.93,21.1-33.83,31.65-50.74c3.37-5.41,8.79-7.22,14.5-4.91c1.5,0.61,1.74,1.81,2.05,3.13c4.03,17.12,8.15,34.21,12,51.37
		c0.39,1.72,3.16,4.49-0.71,5.79c-4.35,1.46-9.27-0.06-10.4-3.24c-0.77-2.17-1.09-4.5-1.53-6.78c-0.85-4.41-3.2-6.68-7.97-6.24
		c-3.47,0.32-6.98,0.14-10.46,0.26c-2.39,0.08-2.91-0.67-1.82-2.92c2.41-5.01,4.77-9.48,11.83-7.71c3.3,0.82,4.83-1.04,3.77-4.75
		C1257.79,609.38,1256.73,604.23,1255.14,597.63z"/>
	<path class="st0" d="M912.3,501.64c9.15-0.8,18.05-0.14,26.83,1.77C929.98,504.75,921.11,502.78,912.3,501.64z"/>
	<path class="st1" d="M619.48,486.35c-8.97,1.75-17.76,2.38-26.57,0C601.77,486.35,610.62,486.35,619.48,486.35z"/>
	<path class="st2" d="M657.64,482.73c6.61-0.62,12.99-2.93,19.7-2.83C670.99,482.38,664.44,483.44,657.64,482.73z"/>
	<path class="st2" d="M984.97,505.33c0.03,0.5,0.05,1.01,0.08,1.51c-5.66-0.33-11.33-0.65-16.99-0.98c0.02-0.47,0.03-0.94,0.05-1.42
		C973.72,504.75,979.34,505.04,984.97,505.33z"/>
	<path class="st0" d="M946.73,504.06c3.05-1.52,6.14-0.83,9.24-0.31C952.99,505.54,949.86,505.09,946.73,504.06z"/>
	<path class="st3" d="M968.1,504.45c-0.02,0.47-0.03,0.94-0.05,1.42c-2.22,0.02-4.5,0.51-7.28-1.19
		C963.62,503.65,965.84,503.89,968.1,504.45z"/>
</g>
</svg>
